<svg xmlns="http://www.w3.org/2000/svg" width="397" height="399" viewBox="0 0 397 399" fill="none"><g clip-path="url(#clip0_80_314)"><path d="M468.554 297.369C439.346 291.349 410.449 282.487 384.233 268.082C360.663 255.135 339.475 237.482 323.997 215.409C316.431 204.624 310.59 192.871 306.268 180.449C302.007 168.195 298.906 155.558 294.226 143.447C289.629 131.563 283.177 120.598 273.289 112.345C262.695 103.506 249.899 97.7853 238.73 89.759C217.279 74.3393 199.933 53.2582 189.22 29.1314C187.867 26.0857 186.61 22.9922 185.449 19.8629C184.886 18.346 186.071 16.5903 187.544 16.1842C189.22 15.7303 190.668 16.7455 191.231 18.2744C200.221 42.5326 215.986 64.1272 236.156 80.3352C246.691 88.8035 258.769 94.7874 269.89 102.372C275.54 106.23 280.879 110.565 285.32 115.797C289.414 120.634 292.801 125.997 295.603 131.67C301.324 143.292 304.784 155.809 308.579 168.135C312.373 180.449 316.814 192.37 323.434 203.489C336.578 225.61 355.863 243.741 377.649 257.285C402.74 272.896 430.954 282.666 459.648 289.307C463.143 290.119 466.663 290.883 470.182 291.6C471.762 291.922 472.684 293.786 472.277 295.279C471.774 296.927 470.134 297.703 468.554 297.369Z" fill="#005635"></path><path d="M454.309 85.3898C436.484 99.3195 414.192 105.65 391.98 108.034C367.01 110.725 341.945 108.219 316.952 107.169C303.515 106.608 290.028 106.467 276.626 107.781C263.655 109.062 251.028 112.162 238.363 115.12C225.733 118.078 212.92 120.896 199.913 121.269C187.302 121.643 174.957 119.285 163.136 114.954C151.352 110.634 140.096 104.902 129.233 98.6577C118.31 92.3792 107.823 85.3727 97.7997 77.7568C95.3701 75.9047 92.9635 74.0162 90.5919 72.0909C87.597 69.6672 91.7389 65.3558 94.7213 67.7559C113.681 83.0985 134.744 96.4161 157.166 106.149C168.317 110.987 180.191 114.624 192.396 115.216C204.972 115.822 217.432 113.694 229.66 110.974C242.235 108.186 254.699 104.85 267.451 102.906C280.524 100.918 293.77 100.551 306.973 100.831C332.109 101.387 357.234 104.346 382.389 102.81C404.017 101.493 426.137 96.912 444.552 84.9998C446.838 83.5201 449.049 81.9347 451.186 80.2675C452.454 79.2675 454.519 79.9691 455.306 81.2406C456.207 82.7722 455.589 84.3895 454.309 85.3898Z" fill="#005635"></path><path d="M253.094 70.0136C246.259 65.8357 241.235 59.175 237.725 50.9442C234.209 42.7251 236.242 38.8934 230.985 33.5758C225.739 28.2638 222.406 23.9687 222.406 23.9687C222.406 23.9687 240.3 28.5739 253.254 35.3021C266.202 42.0131 271.405 44.2671 275.841 52.771C280.289 61.2805 283.684 74.3482 283.684 74.3482C283.684 74.3482 259.929 74.1915 253.094 70.0136Z" fill="#B4DC82"></path><path d="M277.302 80.5007C277.302 80.5007 277.144 86.7009 274.659 96.2775C272.18 105.842 272.921 109.764 265.861 117.531C258.807 125.286 252.874 126.89 250.552 130.255C248.219 133.614 243.612 139.377 243.612 139.377C243.612 139.377 239.206 134.667 240.825 119.797C242.444 104.927 241.503 94.0062 250.966 88.5191C260.429 83.0319 275.927 77.3022 275.927 77.3022L277.302 80.5007Z" fill="#B4DC82"></path><path d="M161.712 158.607C161.712 158.607 171.146 170.592 162.236 187.185C153.313 203.771 154.342 202.853 144.609 209.879L134.941 219.233C134.941 219.233 134.248 217.645 133.367 202.446C132.469 187.253 131.479 177.293 136.942 170.229C142.404 163.165 158.125 153.562 160.29 153.104C162.432 152.634 161.712 158.607 161.712 158.607Z" fill="#B4DC82"></path><path d="M170.532 128.379C170.532 128.379 166.408 135.928 157.091 144.167C147.775 152.406 139.141 155.609 132.015 157.61C124.895 159.6 115.039 161.305 115.039 161.305C115.039 161.305 126.584 138.83 135.755 131.962C144.92 125.077 162.966 124.264 170.532 128.379Z" fill="#B4DC82"></path><path d="M187.446 105.798C187.446 105.798 178.862 115.929 169.074 117.908C159.285 119.888 144.281 120.263 137.288 118.577C130.295 116.891 126.028 115.542 121.177 115.64C121.177 115.64 124.747 111.377 130.105 107.2C135.462 103.024 139.458 98.6792 152.664 96.0148C165.864 93.3619 184.356 97.1415 187.446 105.798Z" fill="#B4DC82"></path><path d="M216.38 89.9552C216.38 89.9552 201.384 96.1256 191.257 95.1895C181.13 94.2533 170.672 92.0746 163.341 86.375C156.004 80.6871 148.226 73.3041 148.226 73.3041C148.226 73.3041 158.954 71.3908 173.701 71.1058C188.442 70.8325 211.656 82.2261 216.38 89.9552Z" fill="#B4DC82"></path><path d="M248.941 79.403C248.941 79.403 239.577 83.112 229.041 82.1937C218.505 81.2753 208.467 75.3185 199.91 64.5094C191.353 53.7003 179.423 49.1181 179.423 49.1181C179.423 49.1181 207.954 41.4683 224.424 51.6091C240.894 61.75 246.831 76.3654 248.941 79.403Z" fill="#B4DC82"></path><path d="M224.417 91.401C224.417 91.401 228.996 99.8165 229.364 107.21C229.727 114.616 229.044 119.622 225.082 127.934C221.102 136.251 218.319 140.75 218.044 142.301C217.762 143.835 215.185 141.172 211.289 131.044C207.375 120.923 202.808 95.0403 224.417 91.401Z" fill="#B4DC82"></path><path d="M192.4 104.567C192.4 104.567 199.533 117.502 200.286 125.223C201.045 132.933 203.788 142.992 199.894 149.026C196 155.06 191.983 165.769 191.983 165.769C191.983 165.769 192.651 158.687 188.486 152.082C184.322 145.477 180.393 139.242 181.005 129.637C181.628 120.038 192.4 104.567 192.4 104.567Z" fill="#B4DC82"></path><path d="M169.366 139.4C169.366 139.4 184.954 160.329 185.94 175.28C186.927 190.23 185.963 202.405 185.963 202.405C185.963 202.405 185.857 194.438 177.401 179.355C168.927 164.279 168.486 146.595 169.366 139.4Z" fill="#B4DC82"></path><path d="M158.445 159.393C158.445 159.393 171.114 135.062 178.45 125.773C185.785 116.483 185.828 112.211 193.521 107.016C201.214 101.82 206.226 99.1901 213.404 96.1012C220.582 93.0123 236.146 86.3157 241.721 83.9127C247.308 81.5153 251.693 79.625 264.701 80.1603C277.708 80.6956 294.176 75.0314 301.316 76.2034C308.45 77.387 322.703 76.437 328.468 77.7336C334.233 79.0303 339.424 80.0944 343.408 78.3829C347.392 76.6713 352.232 70.3356 349.092 70.7405C345.952 71.1454 333.123 74.3042 326.562 73.3533C320.001 72.4023 303.405 73.4115 297.412 72.676C291.414 71.9521 289.314 71.4441 281.097 72.1515C272.885 72.8474 256.006 75.3902 251.67 76.3195C247.34 77.2372 239.415 79.711 231.842 82.967C224.263 86.2345 213.496 90.8678 205.165 93.5031C196.844 96.1439 189.666 102.527 185.741 106.578C181.816 110.628 170.382 126.88 168.395 131.033C166.42 135.192 158.445 159.393 158.445 159.393Z" fill="#9DC563"></path><path d="M136.262 213.078C137.687 207.215 139.436 201.45 141.324 195.723C142.247 192.857 143.269 190.024 144.285 187.174C145.331 184.352 146.393 181.524 147.514 178.724C148.634 175.924 149.83 173.146 151.032 170.385L152.928 166.274C153.257 165.59 153.546 164.902 153.887 164.224L154.916 162.207C156.251 159.496 157.749 156.863 159.264 154.252L161.694 150.426C162.586 149.199 163.483 147.989 164.392 146.785C161.344 151.983 158.864 157.455 156.425 162.931C154.01 168.419 151.698 173.957 149.497 179.533C147.244 185.099 145.077 190.692 142.882 196.285C140.716 201.879 138.527 207.489 136.262 213.078Z" fill="#9DC563"></path><path d="M184.705 192.915C183.15 188.489 181.956 183.965 180.837 179.435C180.283 177.144 179.742 174.973 178.988 172.8C178.217 170.633 177.429 168.472 176.531 166.329L173.919 159.856C173.078 157.684 172.203 155.495 171.477 153.264C170.739 151.028 170.053 148.773 169.619 146.44C169.209 144.117 168.936 141.718 169.366 139.401C169.408 141.746 169.968 143.997 170.641 146.188C171.292 148.397 172.178 150.534 173.047 152.677C173.95 154.807 174.847 156.949 175.796 159.074C176.723 161.215 177.637 163.351 178.518 165.528C179.387 167.7 180.188 169.924 180.903 172.178C181.566 174.45 182.11 176.822 182.457 179.099C183.277 183.686 184.005 188.286 184.705 192.915Z" fill="#9DC563"></path><path d="M118.053 159.056C118.684 158.902 119.262 158.594 119.827 158.281C120.393 157.967 120.941 157.631 121.489 157.295C122.573 156.588 123.627 155.853 124.67 155.084C126.749 153.557 128.77 151.945 130.785 150.316L136.734 145.325C138.737 143.662 140.751 142.004 142.83 140.419C144.92 138.84 147.063 137.33 149.289 135.915C150.413 135.243 151.538 134.541 152.715 133.937C153.304 133.634 153.869 133.292 154.47 133.024L156.278 132.209C161.103 130.059 166.467 128.924 171.671 129.338C166.475 129.826 161.526 131.374 156.993 133.721C152.449 136.062 148.206 138.962 144.129 142.112C140.006 145.212 136.047 148.561 131.808 151.634C129.688 153.155 127.515 154.609 125.265 155.955C124.123 156.605 122.98 157.255 121.796 157.813C120.589 158.332 119.37 158.903 118.053 159.056Z" fill="#9DC563"></path><path d="M192.4 104.566C190.441 108.69 189.148 113.034 188.606 117.452C188.358 119.658 188.277 121.872 188.438 124.06C188.587 126.243 188.995 128.45 189.484 130.61C190.456 134.97 191.934 139.26 193.121 143.68C193.714 145.89 194.244 148.141 194.488 150.455C194.713 152.745 194.659 155.172 193.764 157.296C194.207 155.041 193.948 152.791 193.447 150.626C192.97 148.443 192.24 146.309 191.509 144.176C190.75 142.043 190.014 139.893 189.272 137.725C188.564 135.546 187.907 133.348 187.382 131.085C186.915 128.821 186.493 126.522 186.399 124.167C186.346 121.816 186.488 119.474 186.948 117.184C187.845 112.622 189.668 108.248 192.4 104.566Z" fill="#9DC563"></path><path d="M127.824 115.82C127.669 115.103 127.997 114.362 128.426 113.769C128.533 113.607 128.652 113.478 128.788 113.344C128.924 113.21 129.049 113.07 129.179 112.947C129.47 112.73 129.748 112.478 130.057 112.284C131.288 111.448 132.675 110.944 134.045 110.474C136.832 109.615 139.711 109.099 142.582 108.808C148.322 108.167 154.078 108.119 159.786 107.962C165.489 107.874 171.167 107.631 176.78 106.9C182.392 106.141 187.92 104.785 193.342 102.908C188.278 105.613 182.735 107.475 177.053 108.558C174.215 109.107 171.339 109.439 168.456 109.696C165.578 109.913 162.705 110.032 159.825 110.106L151.247 110.226C148.395 110.242 145.544 110.343 142.711 110.467L140.587 110.603L138.481 110.82C137.078 110.974 135.687 111.191 134.314 111.488C132.947 111.802 131.582 112.174 130.341 112.791C130.026 112.94 129.747 113.134 129.433 113.311C129.171 113.528 128.869 113.711 128.642 113.973C128.194 114.457 127.784 115.101 127.824 115.82Z" fill="#9DC563"></path><path d="M216.87 138.271C215.644 134.317 214.884 130.23 214.411 126.109C213.938 121.988 213.77 117.828 213.947 113.663C214.165 109.503 214.712 105.343 215.871 101.307C217.007 97.2875 218.779 93.3736 221.42 90.1765C219.541 93.8678 218.305 97.739 217.507 101.707C217.112 103.685 216.791 105.685 216.575 107.706C216.335 109.717 216.176 111.737 216.098 113.768C215.98 115.793 215.942 117.829 215.962 119.864C215.942 121.894 216.025 123.945 216.086 125.985C216.235 130.065 216.512 134.149 216.87 138.271Z" fill="#9DC563"></path><path d="M219.003 90.771C217.597 91.1664 216.155 91.4014 214.729 91.6303C213.286 91.8653 211.848 92.0313 210.393 92.2032C207.494 92.4951 204.569 92.661 201.641 92.6256C198.708 92.6019 195.748 92.3658 192.805 91.6811C191.312 91.3074 189.922 90.8114 188.553 90.2691C187.179 89.7383 185.827 89.1325 184.498 88.509C181.851 87.2103 179.327 85.7141 176.822 84.3269C175.572 83.6275 174.317 82.9684 173.029 82.3789C172.384 82.0841 171.735 81.8296 171.074 81.5696L169.04 80.8076C163.604 78.7986 158.184 76.7262 152.836 74.4457C158.465 75.8767 164.039 77.5098 169.591 79.218L171.67 79.8586C172.383 80.1006 173.078 80.3486 173.768 80.6369C175.142 81.1964 176.472 81.8486 177.779 82.5183C180.376 83.8926 182.853 85.3378 185.425 86.5572C186.708 87.1871 187.996 87.7767 189.312 88.3083C190.635 88.8571 191.984 89.3192 193.287 89.7016C195.972 90.4478 198.823 90.7316 201.679 90.9462C204.539 91.1206 207.427 91.1796 210.308 91.1351C211.754 91.1301 213.194 91.0791 214.651 91.0221C215.376 90.9994 216.096 90.9596 216.816 90.9198C217.564 90.9082 218.29 90.8855 219.003 90.771Z" fill="#9DC563"></path><path d="M243.681 134.489C242.523 131.879 242.459 128.867 242.881 126.032C243.09 124.591 243.5 123.205 243.963 121.83C244.206 121.148 244.484 120.482 244.773 119.822L245.723 117.882C246.998 115.384 248.256 112.892 249.42 110.327C250.608 107.774 251.957 105.183 253.498 102.784C256.634 97.9986 260.091 93.524 263.769 89.184C265.608 87.0283 267.523 84.9233 269.503 82.892C270.513 81.8932 271.523 80.8945 272.58 79.9468C273.637 78.9991 274.724 78.0797 275.934 77.3193C274.877 78.267 273.942 79.3163 273.007 80.3656C272.085 81.4205 271.179 82.4981 270.292 83.5984C268.504 85.7648 266.787 87.9933 265.082 90.2274C263.399 92.4726 261.705 94.7122 260.07 97.0084C258.428 99.2875 256.798 101.572 255.308 103.924C253.771 106.253 252.501 108.681 251.243 111.202C249.974 113.717 248.648 116.261 247.181 118.681C245.754 121.049 244.601 123.562 243.922 126.246C243.243 128.901 242.987 131.745 243.681 134.489Z" fill="#9DC563"></path><path d="M283.289 75.97C282.934 75.757 282.507 75.7521 282.103 75.6721L280.878 75.484C280.07 75.3527 279.255 75.2043 278.434 75.0387C276.81 74.7016 275.218 74.2374 273.642 73.681C270.501 72.5451 267.509 70.9527 264.832 68.9127C264.162 68.4056 263.503 67.8753 262.883 67.3214C262.574 67.0445 262.247 66.7736 261.943 66.485L261.036 65.6079C260.422 65.0424 259.882 64.3838 259.302 63.7776C258.773 63.1245 258.204 62.4951 257.71 61.8013C255.657 59.0905 254.198 56.0659 252.616 53.2386C251.073 50.3877 249.349 47.6776 247.317 45.1907C245.325 42.7089 242.945 40.4689 240.543 38.2752C235.681 33.9461 230.49 29.9154 225.226 25.9778C230.992 29.1717 236.488 32.8356 241.641 37.0049C244.214 39.081 246.675 41.3313 248.887 43.8901C251.07 46.4494 252.889 49.2903 254.501 52.2034C256.085 55.1169 257.496 58.033 259.356 60.6088C261.149 63.2374 263.46 65.5015 265.873 67.6145C268.33 69.6637 271.088 71.3862 274.036 72.7148C275.51 73.3935 277.035 73.9679 278.592 74.4728C279.369 74.7311 280.161 74.9546 280.943 75.1725L282.123 75.5108C282.529 75.6482 282.956 75.7106 283.289 75.97Z" fill="#9DC563"></path><path d="M184.751 50.0767C185.395 49.6586 186.225 49.6285 186.991 49.6109C187.763 49.6393 188.531 49.7079 189.293 49.8457C190.818 50.0924 192.3 50.5179 193.76 50.9899C196.667 51.9569 199.498 53.1437 202.261 54.4694C205.059 55.8118 207.662 57.5885 210.033 59.5815C212.397 61.586 214.524 63.8472 216.525 66.1621C218.509 68.483 220.361 70.8979 222.348 73.0923C224.341 75.275 226.453 77.3008 229.288 77.6767C230.745 77.9762 232.223 78.1719 233.712 78.3444C235.196 78.5285 236.702 78.6375 238.213 78.7349C241.23 78.9414 244.268 79.0153 247.305 79.0604C244.292 79.4978 241.247 79.7058 238.194 79.7816C235.141 79.8287 232.063 79.7784 228.997 79.3198C228.257 79.222 227.391 79.0628 226.602 78.7703C225.825 78.4545 225.088 78.0577 224.423 77.5965C223.078 76.6801 221.937 75.5766 220.86 74.4606C218.733 72.1994 216.875 69.7961 214.904 67.5382C211.047 62.9637 206.719 58.8047 201.511 55.9355C198.868 54.5102 196.184 53.1373 193.423 51.9552C192.042 51.3498 190.64 50.8195 189.193 50.4106C188.469 50.1918 187.741 50.0421 186.996 49.9271C186.228 49.8584 185.443 49.7671 184.751 50.0767Z" fill="#9DC563"></path><path d="M282.303 181.74C282.315 181.775 282.327 181.799 282.339 181.835C282.184 181.453 282.016 181.083 281.86 180.7C281.872 180.736 281.896 180.772 281.92 180.808C281.669 180.486 281.429 180.163 281.178 179.852C281.202 179.876 281.214 179.9 281.238 179.912C280.915 179.661 280.591 179.422 280.268 179.172C280.292 179.184 280.304 179.196 280.328 179.207C279.945 179.052 279.574 178.885 279.191 178.73C279.215 178.742 279.239 178.754 279.275 178.754C278.856 178.694 278.425 178.646 278.006 178.586C278.042 178.586 278.066 178.586 278.102 178.586C277.683 178.646 277.252 178.706 276.833 178.754C276.881 178.742 276.928 178.73 276.976 178.718C276.593 178.873 276.21 179.04 275.827 179.196C275.899 179.16 275.971 179.124 276.043 179.064C275.719 179.315 275.396 179.566 275.073 179.817C275.133 179.781 275.181 179.733 275.229 179.685C274.977 180.008 274.726 180.33 274.474 180.665C274.51 180.605 274.546 180.545 274.57 180.485C274.403 180.868 274.247 181.262 274.079 181.644C274.115 181.56 274.139 181.477 274.151 181.393C274.091 181.835 274.032 182.265 273.972 182.707C273.984 182.659 273.984 182.6 273.972 182.552C274.032 182.994 274.091 183.436 274.151 183.878C274.151 183.842 274.139 183.818 274.127 183.782C274.295 184.176 274.462 184.582 274.63 184.976C274.618 184.953 274.606 184.929 274.594 184.905C274.858 185.251 275.121 185.586 275.384 185.932C275.372 185.908 275.348 185.896 275.336 185.884C275.683 186.147 276.019 186.41 276.366 186.672C276.342 186.661 276.318 186.637 276.294 186.637C276.701 186.804 277.108 186.983 277.515 187.15C277.491 187.138 277.455 187.126 277.431 187.126C279.095 186.684 280.759 186.254 282.423 185.813C282.423 185.824 282.411 185.836 282.399 185.836C281.932 186.338 281.37 186.708 280.723 186.911C280.316 187.15 279.873 187.27 279.406 187.27C278.712 187.425 278.018 187.389 277.323 187.174C276.904 186.995 276.498 186.828 276.079 186.649C275.731 186.374 275.372 186.111 275.025 185.836C274.522 185.371 274.151 184.809 273.948 184.164C273.708 183.758 273.589 183.316 273.589 182.85C273.433 182.158 273.469 181.465 273.684 180.772C273.864 180.354 274.032 179.948 274.211 179.53C274.486 179.184 274.75 178.825 275.025 178.479C275.492 177.977 276.055 177.607 276.701 177.404C277.108 177.165 277.551 177.046 278.018 177.046C278.712 176.89 279.406 176.926 280.101 177.141C280.52 177.32 280.927 177.488 281.346 177.667C281.693 177.941 282.052 178.204 282.399 178.479C283.045 179.124 283.488 179.888 283.74 180.772C283.8 180.999 283.835 181.226 283.835 181.465C283.919 181.704 283.955 181.943 283.919 182.182C283.417 180.975 282.914 179.769 282.423 178.563C282.435 178.574 282.447 178.586 282.459 178.598C282.758 178.933 283.045 179.291 283.285 179.673C283.536 180.067 283.704 180.521 283.835 180.963C283.967 181.417 284.039 181.907 284.027 182.385C284.027 182.397 284.027 182.397 284.027 182.408V182.42C284.027 182.468 283.859 183.71 283.847 183.758C283.847 183.77 283.847 183.794 283.835 183.806C283.704 184.248 283.512 184.678 283.297 185.084C283.189 185.287 282.914 185.598 282.854 185.669C282.698 185.872 282.531 186.147 282.303 186.326C282.136 186.457 281.932 186.613 281.8 186.72C281.657 186.828 281.465 186.983 281.298 187.114C281.286 187.126 281.286 187.126 281.274 187.138C281.25 187.15 281.238 187.162 281.214 187.174C281.178 187.198 281.13 187.222 281.094 187.246C281.417 186.995 281.741 186.744 282.076 186.493C281.741 186.756 281.37 187.079 280.998 187.317C280.963 187.341 280.927 187.365 280.879 187.389C280.472 187.592 280.053 187.771 279.622 187.915C279.586 187.927 279.55 187.939 279.514 187.95C279.071 188.034 278.628 188.082 278.185 188.13C278.161 188.13 278.149 188.13 278.126 188.13C277.91 188.13 277.503 188.046 277.443 188.046C277.479 188.046 276.964 188.01 276.761 187.95C276.749 187.95 276.749 187.95 276.737 187.939H276.725C276.677 187.927 275.624 187.485 275.576 187.461C275.564 187.449 275.54 187.449 275.528 187.437C275.181 187.21 274.846 186.947 274.534 186.672C274.522 186.661 274.51 186.649 274.498 186.637C273.708 185.705 273.648 185.586 273.218 184.439C273.206 184.415 273.206 184.391 273.194 184.367C273.098 183.925 273.062 183.471 273.014 183.03C272.99 182.373 273.122 181.775 273.421 181.202C273.613 180.617 273.936 180.103 274.403 179.685C274.726 179.434 275.037 179.196 275.36 178.945C275.899 178.598 276.498 178.407 277.12 178.383C277.539 178.276 277.958 178.276 278.377 178.383C279.011 178.407 279.598 178.598 280.137 178.945C280.46 179.196 280.771 179.434 281.094 179.685C281.681 180.235 282.088 180.939 282.303 181.74Z" fill="#004A20"></path><path d="M261.415 171.312C261.391 171.372 261.379 171.432 261.367 171.504C261.403 171.265 261.427 171.026 261.463 170.799C261.451 170.87 261.451 170.942 261.463 171.002C261.427 170.763 261.403 170.524 261.367 170.285C261.379 170.357 261.403 170.44 261.427 170.512C261.331 170.297 261.247 170.082 261.152 169.867C261.187 169.951 261.235 170.034 261.295 170.106C261.152 169.927 261.008 169.736 260.864 169.557C260.936 169.64 261.008 169.724 261.092 169.784C260.912 169.64 260.721 169.497 260.541 169.354C260.613 169.413 260.697 169.461 260.78 169.497C260.565 169.401 260.338 169.306 260.122 169.222C260.206 169.258 260.29 169.282 260.385 169.294C260.134 169.258 259.895 169.222 259.643 169.198C259.715 169.21 259.787 169.21 259.847 169.198C259.595 169.234 259.356 169.27 259.105 169.294C259.176 169.282 259.248 169.27 259.308 169.234C259.081 169.33 258.865 169.425 258.638 169.521C258.698 169.497 258.757 169.461 258.805 169.425C258.614 169.569 258.422 169.724 258.231 169.867C258.279 169.831 258.326 169.784 258.362 169.736C258.219 169.927 258.063 170.118 257.919 170.309C257.967 170.249 258.003 170.178 258.039 170.106C257.943 170.333 257.848 170.56 257.752 170.787C257.764 170.739 257.788 170.691 257.8 170.644C257.764 170.894 257.728 171.145 257.692 171.408C257.692 171.348 257.692 171.289 257.68 171.229C257.716 171.492 257.752 171.742 257.788 172.005C257.776 171.886 257.74 171.778 257.692 171.671C257.788 171.91 257.896 172.148 257.991 172.387C257.955 172.292 257.907 172.208 257.848 172.137C258.003 172.34 258.171 172.555 258.326 172.758C258.279 172.686 258.219 172.638 258.147 172.578C258.362 172.746 258.566 172.901 258.781 173.068C258.721 173.02 258.662 172.996 258.602 172.961C258.853 173.068 259.105 173.176 259.368 173.283C259.356 173.271 259.332 173.271 259.32 173.271C259.883 173.271 260.457 173.271 261.02 173.271H261.008C261.259 173.164 261.523 173.056 261.774 172.949C261.762 172.961 261.75 172.961 261.726 172.973C261.954 172.805 262.169 172.626 262.396 172.459C262.097 172.782 261.738 173.008 261.331 173.14C260.936 173.343 260.517 173.438 260.05 173.426C259.751 173.391 259.464 173.343 259.164 173.307C258.602 173.152 258.111 172.865 257.704 172.459C257.512 172.22 257.333 171.981 257.141 171.73C256.842 171.229 256.698 170.679 256.698 170.094C256.686 169.652 256.77 169.234 256.974 168.84C257.105 168.434 257.333 168.088 257.644 167.801C258.051 167.395 258.53 167.12 259.081 166.965C259.105 166.953 259.128 166.941 259.152 166.941C259.739 166.786 260.326 166.786 260.912 166.941C261.343 167.048 261.714 167.24 262.037 167.538C262.396 167.777 262.684 168.076 262.887 168.47C263.187 168.983 263.342 169.545 263.342 170.142C263.342 170.142 263.342 170.142 263.342 170.154C263.306 169.867 263.258 169.569 263.222 169.282C263.282 169.592 263.318 169.903 263.342 170.202C263.199 169.664 263.055 169.127 262.899 168.589C262.899 168.589 262.899 168.601 262.911 168.601C262.744 168.386 262.576 168.171 262.408 167.956C262.42 167.968 262.432 167.98 262.432 167.992C262.6 168.183 262.792 168.446 262.947 168.649C262.959 168.673 262.983 168.697 262.995 168.721C263.007 168.744 263.019 168.768 263.043 168.804C263.043 168.816 263.055 168.828 263.055 168.84C263.163 169.067 263.294 169.389 263.378 169.616C263.402 169.664 263.414 169.724 263.426 169.784C263.486 170.106 263.546 170.429 263.558 170.763C263.558 170.823 263.558 170.882 263.558 170.942C263.534 171.229 263.498 171.527 263.438 171.802C263.438 171.826 263.426 171.862 263.414 171.886C263.306 172.232 263.139 172.567 262.983 172.889C263.079 172.662 263.175 172.435 263.27 172.208C263.163 172.471 263.067 172.746 262.935 172.996C262.851 173.14 262.732 173.271 262.636 173.403C262.552 173.522 262.444 173.677 262.325 173.785C262.313 173.797 262.289 173.809 262.277 173.821C262.085 173.976 261.87 174.155 261.654 174.298C261.618 174.322 261.57 174.346 261.535 174.37C261.295 174.478 261.008 174.633 260.721 174.704C260.577 174.74 260.397 174.752 260.29 174.764C260.158 174.776 260.002 174.812 259.859 174.824C259.835 174.824 259.799 174.824 259.775 174.824C259.512 174.812 259.236 174.764 258.973 174.716C258.638 174.669 258.314 174.489 258.015 174.346C257.967 174.322 257.919 174.298 257.872 174.263C257.644 174.095 257.405 173.928 257.201 173.737C257.165 173.701 257.129 173.665 257.093 173.63C256.926 173.438 256.77 173.223 256.627 173.02C256.615 172.997 256.591 172.973 256.579 172.949C256.399 172.674 256.279 172.34 256.172 172.029C256.088 171.766 256.052 171.324 256.04 171.145C256.028 171.085 256.028 171.026 256.04 170.966C256.088 170.309 256.184 169.891 256.507 169.306C256.675 168.995 256.902 168.744 257.189 168.565C257.453 168.326 257.752 168.171 258.099 168.088C258.338 168.052 258.566 168.028 258.805 167.992C259.176 167.98 259.512 168.052 259.835 168.219C260.062 168.279 260.254 168.398 260.421 168.565C260.709 168.756 260.936 169.007 261.104 169.306C261.187 169.521 261.283 169.724 261.367 169.939C261.547 170.369 261.547 170.835 261.415 171.312Z" fill="#004A20"></path><path d="M261.127 190.363C256.543 190.363 256.531 183.256 261.127 183.256C265.712 183.256 265.724 190.363 261.127 190.363Z" fill="#004A20"></path><path d="M240.274 164.743C240.669 164.385 241.064 164.027 241.471 163.668C241.723 163.405 242.01 163.214 242.345 163.107C242.668 162.94 243.016 162.856 243.399 162.868C243.77 162.856 244.129 162.928 244.452 163.107C244.787 163.214 245.086 163.405 245.326 163.668C245.47 163.847 245.613 164.038 245.757 164.218C246.008 164.636 246.128 165.101 246.128 165.591C246.092 165.83 246.068 166.069 246.032 166.308C245.9 166.774 245.673 167.168 245.338 167.502C244.979 167.896 244.62 168.291 244.261 168.697C244.009 168.971 243.71 169.162 243.363 169.27C243.028 169.449 242.668 169.521 242.285 169.509C241.902 169.521 241.543 169.437 241.208 169.27C240.861 169.162 240.562 168.959 240.31 168.697C240.167 168.506 240.023 168.314 239.867 168.135C239.616 167.693 239.484 167.228 239.484 166.726C239.52 166.475 239.556 166.224 239.58 165.985C239.688 165.508 239.927 165.09 240.274 164.743Z" fill="#004A20"></path><path d="M402.739 295.136C399.292 301.633 400.573 311.845 404.008 321.807C396.335 313.076 390.434 295.375 395.509 285.354C399.831 276.838 408.593 283.407 414.566 293.798C410.089 289.952 405.756 289.439 402.739 295.136Z" fill="#006A45"></path><path d="M338.005 234.049C352.89 215.478 362.047 200.704 381.982 204.245C401.916 207.774 409.994 226.938 415.811 237.429C421.628 247.921 435.825 235.004 457.979 250.177C480.132 265.35 459.812 268.358 449.225 298.901C438.648 329.431 430.66 324.568 414.638 339.548C398.615 354.528 371.643 363.117 351.296 367.618C330.95 372.118 330.472 384.624 330.472 384.624C331.6 367.959 318.716 372.567 307.187 344.125C295.66 315.695 302.551 313.995 308.548 290.841C314.558 267.696 323.12 252.62 338.005 234.049ZM379.11 215.59C372.216 208.263 353.419 211.773 362.082 218.112C362.07 218.114 386.004 222.918 379.11 215.59ZM369.14 248.151C369.776 238.427 338.506 240.526 339.886 248.773C341.267 257.02 368.504 257.875 369.14 248.151ZM449.015 260.441C430.193 246.978 416.546 253.09 429.642 263.61C442.735 274.106 467.835 273.892 449.015 260.441ZM426.337 320.998C426.337 320.998 435.885 317.124 430.88 300.1C425.873 283.063 400.835 251.308 394.833 268.945C388.842 286.581 416.565 322.874 426.337 320.998ZM399.062 340.854C399.062 340.854 403.875 336.418 398.999 327.625C394.123 318.833 389.896 317.28 388.006 310.011C386.107 302.756 383.784 290.246 377.488 293.906C371.182 297.58 382.085 339.64 399.062 340.854ZM371.94 349.491C371.94 349.491 374.217 347.525 367.858 337.956C361.499 328.388 360.151 317.643 355.614 320.327C351.078 323.024 363.892 352.891 371.94 349.491ZM401.99 240.592C410.462 242.448 403.279 219.896 395.535 220.294C387.779 220.694 393.518 238.737 401.99 240.592ZM311.843 322.277C309.678 333.725 317.187 350.791 322.49 346.615C322.49 346.615 337.207 331.58 335.324 323.076C333.453 314.57 314.007 310.829 311.843 322.277ZM319.782 291.183C319.782 291.183 353.522 291.612 353.393 283.38C353.264 275.148 330.616 267.873 322.515 274.996C314.416 282.131 314.303 289.616 319.782 291.183Z" fill="#217F5E"></path><path d="M338.005 234.049C352.89 215.478 362.047 200.704 381.982 204.245C384.054 204.611 385.985 205.156 387.803 205.829C388.751 215.756 388.287 225.415 381.585 232.42C374.334 239.999 352.381 241.009 332.249 241.505C334.061 239.057 335.967 236.594 338.005 234.049ZM362.07 218.114C362.07 218.114 386.002 222.906 379.098 215.592C372.215 208.263 353.417 211.762 362.07 218.114Z" fill="#0D7859"></path><path d="M313.608 318.421C309.067 320.259 304.845 322.118 301.232 324.072C299.831 312.622 304.407 306.869 308.559 290.839C311.9 277.966 316.032 267.59 321.592 257.72C342.264 256.664 365.748 250.42 368.996 275.862C371.615 296.36 345.193 306.179 322.057 315.101C318.73 315.073 315.557 316.072 313.608 318.421ZM353.393 283.38C353.264 275.148 330.615 267.873 322.515 274.996C314.414 282.12 314.303 289.616 319.782 291.183C319.782 291.183 353.522 291.612 353.393 283.38Z" fill="#0D7859"></path><path d="M308.559 290.839C314.556 267.684 323.118 252.608 338.005 234.049C352.89 215.477 362.047 200.704 381.982 204.245C382.818 204.388 383.611 204.573 384.407 204.771C379.931 204.457 376.281 204.832 375.103 206.62C373.818 208.571 374.008 210.573 374.516 212.669C366.395 209.607 354.958 212.891 362.07 218.114C362.07 218.114 370.403 219.787 375.824 219.645C375.742 221.764 374.929 224.013 372.528 226.412C364.687 234.244 334.761 234.079 334.865 246.514C334.972 258.961 350.12 251.48 340.776 267.797C339.735 269.611 338.67 271.2 337.604 272.632C331.841 271.558 325.901 272.014 322.515 274.996C315.096 281.537 314.402 288.353 318.544 290.646C316.765 292.847 315.106 295.488 313.614 298.937C310.156 306.952 311.833 313.735 312.646 319.896C312.288 320.607 312.013 321.378 311.841 322.265C311.345 324.899 311.356 327.826 311.74 330.728C310.697 333.051 308.885 335.342 305.844 337.615C305.542 337.845 305.246 338.039 304.936 338.222C296.706 315.343 303.001 312.277 308.559 290.839Z" fill="#006A45"></path><path d="M420.068 241.639C412.73 240.12 404.903 240.906 397.744 243.581C394.17 244.947 390.809 246.885 387.726 249.188C386.973 249.782 386.194 250.369 385.457 250.984L383.359 252.934C382.638 253.572 381.999 254.268 381.334 254.957C380.681 255.644 380.002 256.323 379.377 257.03C369.298 268.419 361.694 281.549 354.949 294.963C351.651 301.718 348.559 308.549 345.91 315.646C343.397 322.758 341.22 329.924 339.285 337.16C337.322 344.377 335.563 351.657 333.992 358.967C333.238 362.635 332.497 366.301 331.893 369.993C331.597 371.844 331.302 373.695 331.08 375.546C330.976 376.482 330.883 377.405 330.829 378.346C330.786 379.284 330.72 380.227 330.869 381.147C330.815 380.212 330.981 379.289 331.124 378.37C331.278 377.45 331.472 376.547 331.664 375.633C332.049 373.815 332.496 372 332.944 370.197C333.864 366.587 334.824 362.994 335.845 359.404C337.85 352.229 339.984 345.094 342.196 337.995C344.459 330.911 346.695 323.808 349.354 316.927C352.019 310.08 355.119 303.297 358.426 296.673C361.692 290.02 365.208 283.483 369.037 277.162C372.838 270.821 377.003 264.7 381.649 259.008C382.237 258.296 382.856 257.627 383.46 256.936C384.064 256.245 384.668 255.554 385.316 254.916L387.245 252.969L389.283 251.174C392.06 248.848 395.132 246.849 398.453 245.341C405.116 242.3 412.623 240.96 420.068 241.639Z" fill="#006A45"></path><path d="M328.014 22.2514C349.228 11.4275 363.665 1.71046 380.414 13.1436C397.149 24.5733 396.641 45.3806 397.634 57.3572C398.627 69.3338 416.902 63.3816 430.877 86.3463C444.852 109.311 425.063 103.695 402.852 127.21C380.641 150.725 375.352 142.998 354.566 150.073C333.78 157.148 305.644 153.891 285.218 149.626C264.792 145.36 259.223 156.569 259.223 156.569C267.111 141.829 253.458 140.729 254.624 110.03C255.803 79.3344 262.789 80.6257 277.783 61.9625C292.773 43.3126 306.787 33.0717 328.014 22.2514ZM373.108 22.3174C369.831 12.7949 351.238 8.25968 356.52 17.6148C356.534 17.6183 376.384 31.84 373.108 22.3174ZM350.625 47.9345C355.205 39.3281 325.799 28.3675 323.671 36.4646C321.544 44.5617 346.045 56.5409 350.625 47.9345ZM418.477 92.0165C406.836 71.9848 391.859 71.9576 399.494 86.9376C407.119 101.901 430.108 112.031 418.477 92.0165ZM372.864 137.952C372.864 137.952 383.176 138.346 385.616 120.753C388.059 103.148 378.258 63.8538 365.529 77.4854C352.802 91.1035 363.179 135.635 372.864 137.952ZM339.802 144.856C339.802 144.856 346.011 142.788 345.187 132.756C344.363 122.724 341.14 119.575 342.387 112.165C343.647 104.759 346.667 92.3902 339.409 93.1438C332.155 93.884 324.813 136.75 339.802 144.856ZM311.501 141.57C311.501 141.57 314.387 140.715 312.515 129.369C310.642 118.023 313.83 107.656 308.592 108.245C303.34 108.831 302.761 141.355 311.501 141.57ZM383.722 54.5468C390.69 59.7211 393.419 36.2008 386.173 33.3701C378.928 30.5394 376.754 49.3725 383.722 54.5468ZM267.85 91.996C261.16 101.558 260.996 120.21 267.561 118.591C267.561 118.591 287.168 110.925 288.953 102.382C290.734 93.8526 274.523 82.4442 267.85 91.996ZM287.877 66.9017C287.877 66.9017 318.487 81.175 321.754 73.6011C325.02 66.0273 307.353 50.0689 297.018 53.2429C286.71 56.4238 283.531 63.2198 287.877 66.9017Z" fill="#217F5E"></path><path d="M284.279 132.132C290.504 131.769 298.02 132.783 305.993 134.243C307.063 138.465 308.854 141.5 311.501 141.57C311.501 141.57 313.21 141.054 313.14 135.633C320.447 137.122 327.914 138.767 334.938 139.911C336.202 142.053 337.792 143.764 339.805 144.842C339.805 144.842 342.186 144.057 343.804 141.074C355.111 142.11 364.304 140.799 368.202 133.774C369.714 136.066 371.302 137.563 372.867 137.939C372.867 137.939 383.179 138.332 385.619 120.74C386.386 115.236 385.94 107.617 384.608 100.155C388.174 97.9464 393.004 97.1083 400.077 98.0648C403.413 98.5128 406.924 99.0059 410.496 99.429C416.301 103.617 421.804 104.825 421.719 100.401C426.533 100.616 431.216 100.512 435.45 99.8199C434.028 108.4 419.091 110.041 402.865 127.213C380.654 150.729 375.365 143.001 354.579 150.076C333.793 157.152 305.656 153.894 285.231 149.629C277.81 148.082 272.354 148.572 268.415 149.841C268.495 141.186 271.889 132.845 284.279 132.132Z" fill="#0D7859"></path><path d="M328.013 22.2512C349.227 11.4274 363.664 1.71033 380.413 13.1435C382.152 14.3363 383.696 15.6215 385.074 16.9925C381.853 26.4362 377.454 35.0609 368.461 38.6961C358.729 42.6404 338.271 34.5217 319.7 26.691C322.349 25.2033 325.109 23.73 328.013 22.2512ZM356.533 17.6181C356.533 17.6181 376.397 31.8434 373.121 22.3208C369.831 12.7947 351.237 8.25955 356.533 17.6181Z" fill="#0D7859"></path><path d="M271.051 89.2074C266.141 89.0245 261.527 88.9751 257.425 89.2723C260.857 78.2397 267.403 74.8722 277.782 61.9624C286.117 51.5824 294.161 43.8144 303.307 37.1029C322.613 44.6378 346.61 48.6117 339.116 73.1585C333.074 92.9353 304.93 91.0337 280.132 89.6541C277.082 88.2655 273.789 87.8715 271.051 89.2074ZM321.767 73.6045C325.034 66.0306 307.366 50.0722 297.031 53.2462C286.697 56.4202 283.534 63.2063 287.88 66.8882C287.877 66.9016 318.5 81.1784 321.767 73.6045Z" fill="#0D7859"></path><path d="M365.528 77.486C360.493 82.8733 359.082 93.0707 359.794 103.588C354.662 93.1572 353.551 74.5041 361.075 66.1443C367.473 59.0369 374.234 67.6596 377.289 79.2544C373.995 74.3867 369.932 72.7645 365.528 77.486Z" fill="#006A45"></path><path d="M287.232 140.085C301.694 130.16 309.609 147.599 320.551 150.099C331.492 152.598 343.243 150.705 351.216 146.249C359.204 141.796 364.721 144.995 371.79 144.307C378.859 143.619 390.506 124.105 396.036 113.6C401.553 103.092 405.797 108.162 420.512 111.581C421.039 111.702 421.556 111.808 422.063 111.896C416.533 115.326 409.806 119.833 402.838 127.207C380.628 150.722 375.339 142.995 354.552 150.07C333.766 157.145 305.63 153.888 285.204 149.622C283.22 149.209 281.368 148.945 279.658 148.803C281.41 145.469 283.85 142.412 287.232 140.085Z" fill="#006A45"></path><path d="M277.782 61.962C292.776 43.2987 306.8 33.0747 328.014 22.2509C349.227 11.427 363.665 1.70998 380.413 13.1431C381.106 13.6222 381.764 14.1212 382.406 14.6301C378.447 12.492 374.962 11.348 373.16 12.4972C371.186 13.7591 370.538 15.6498 370.131 17.7741C363.971 11.6368 352.179 9.9319 356.533 17.6178C356.533 17.6178 363.456 22.5803 368.457 24.6736C367.507 26.5718 365.845 28.286 362.667 29.494C352.296 33.4161 325.058 20.9436 320.025 32.3485C315.009 43.7436 331.908 43.1528 316.666 54.2055C314.971 55.4395 313.349 56.4493 311.791 57.3187C306.975 53.9583 301.367 51.937 297.041 53.2627C287.576 56.1756 284.135 62.1035 286.973 65.9101C284.45 67.1874 281.84 68.9137 279.061 71.4541C272.606 77.3461 271.353 84.2257 269.553 90.1776C268.937 90.6758 268.367 91.2716 267.846 92.0089C266.301 94.2108 265.119 96.8924 264.279 99.691C262.365 101.383 259.771 102.713 256.071 103.558C255.708 103.635 255.347 103.699 254.994 103.736C256.878 79.4404 263.893 79.2385 277.782 61.962Z" fill="#006A45"></path><path d="M399.782 62.9436C393.706 58.5287 386.245 56.0284 378.611 55.5269C374.785 55.3097 370.917 55.6962 367.167 56.5133C366.234 56.7436 365.29 56.9571 364.363 57.2177L361.648 58.1309C360.728 58.4217 359.86 58.7835 358.979 59.1418C358.099 59.5001 357.208 59.8415 356.334 60.2301C342.449 66.4883 330.114 75.3339 318.437 84.7927C312.65 89.5996 307.023 94.5624 301.686 99.9572C296.462 105.41 291.533 111.053 286.79 116.859C282.025 122.645 277.439 128.563 272.998 134.59C270.794 137.622 268.617 140.661 266.547 143.784C265.512 145.346 264.49 146.911 263.528 148.521C263.048 149.326 262.577 150.147 262.15 150.966C261.733 151.801 261.272 152.64 261.036 153.551C261.362 152.677 261.907 151.904 262.411 151.119C262.925 150.352 263.479 149.594 264.03 148.851C265.135 147.35 266.278 145.873 267.443 144.416C269.774 141.503 272.115 138.606 274.526 135.771C279.304 130.046 284.2 124.422 289.129 118.836C294.114 113.307 299.067 107.741 304.335 102.557C309.58 97.4101 315.197 92.4875 320.936 87.811C326.645 83.0839 332.544 78.5632 338.645 74.3663C344.727 70.1358 351.041 66.2797 357.623 62.9932C358.444 62.5907 359.294 62.2389 360.125 61.8533C360.969 61.4712 361.799 61.0856 362.653 60.7774L365.213 59.7957L367.813 58.9957C371.302 58.0253 374.929 57.4622 378.585 57.4498C385.861 57.4012 393.273 59.26 399.782 62.9436Z" fill="#006A45"></path><path d="M405.36 199.294C392.963 207.439 390.164 211.879 374.977 213.554C359.782 215.237 360.655 215.885 342.186 216.471C323.717 217.057 312.974 216.086 305.373 214.202C297.771 212.318 288.775 207.199 279.255 210.412C279.255 210.412 281.432 192.964 294.305 179.472C307.178 165.98 303.03 164.219 321.017 152.644C339.004 141.069 350.489 135.236 369.223 138.669C387.956 142.102 382.81 154.037 388.494 155.574C394.169 157.104 410.323 155.602 416.613 164.687C422.904 173.755 417.765 191.158 405.36 199.294ZM313.21 181.94C310.061 177.401 284.309 188.049 292.043 191.943C299.768 195.828 316.36 186.478 313.21 181.94ZM338.491 165.441C344.858 162.448 334.685 158.934 326.007 158.586C317.338 158.246 310.345 162.363 312.507 166.492C314.669 170.638 332.123 168.434 338.491 165.441ZM340.723 183.505C325.7 178.78 310.831 208.762 327.069 212.237C343.325 215.695 355.746 188.23 340.723 183.505ZM357.032 148.078C353.994 144.198 341.772 142.79 342.979 147.591C344.195 152.367 360.069 151.959 357.032 148.078ZM375.202 149C378.216 145.267 370.091 140.677 365.528 142.175C360.983 143.673 372.189 152.734 375.202 149ZM364.697 179.955C358.225 177.287 351.918 198.432 360.812 198.574C369.732 198.725 371.159 182.632 364.697 179.955ZM403.171 178.576C400.335 169.63 386.661 160.188 379.448 164.325C372.244 168.453 384.866 172.745 390.596 182.218C396.325 191.691 398.773 194.616 398.773 194.616C408.018 198.295 406.008 187.521 403.171 178.576Z" fill="#0F7F5D"></path><path d="M366.827 197.437C378.09 195.95 373.49 172.459 364.814 169.448C360.195 167.845 357.864 176.336 358.41 184.375C359.994 181.184 362.329 178.989 364.688 179.963C370.027 182.165 369.973 193.499 364.794 197.312C365.431 197.481 366.1 197.531 366.827 197.437Z" fill="#006F54"></path><path d="M374.978 213.554C390.173 211.871 392.973 207.43 405.361 199.294C417.757 191.15 422.905 173.755 416.606 164.679C416.372 164.336 416.113 164.018 415.846 163.692C413.728 167.895 411.948 172.128 410.023 173.455C405.209 176.774 404.651 162.482 390.107 161.401C387.769 161.229 386.029 161.971 384.697 163.375C391.926 164.132 400.931 171.49 403.172 178.559C406.009 187.504 408.027 198.286 398.765 194.608C398.765 194.608 396.318 191.683 390.588 182.21C388.027 177.959 384.077 174.759 381.143 172.145C379.034 182.982 379.469 199.169 371.822 206.945C361.284 217.659 358.321 203.78 346.54 198.606C343.913 206.56 336.076 214.153 327.07 212.22C322.8 211.306 320.685 208.57 320.15 205.104C318.161 206.737 315.573 208.453 311.758 210.144C295.732 217.196 301.755 207.261 290.36 206.223C286.801 205.899 282.967 207.421 279.372 209.658C279.294 210.132 279.256 210.395 279.256 210.395C288.776 207.182 297.772 212.301 305.373 214.185C312.974 216.069 323.709 217.049 342.187 216.454C360.656 215.901 359.783 215.237 374.978 213.554Z" fill="#006F54"></path><path d="M279.256 210.412C279.864 209.255 280.635 208.188 281.448 207.146C282.287 206.129 283.185 205.153 284.145 204.253C286.062 202.419 288.229 200.843 290.518 199.486C292.824 198.145 295.269 197.038 297.794 196.143C300.234 195.248 302.666 194.412 305.036 193.4C309.803 191.418 314.465 189.217 318.936 186.697C323.389 184.161 327.738 181.407 331.647 178.16L333.118 176.957L334.529 175.696C335.013 175.283 335.463 174.838 335.896 174.393L337.263 173.039C339.221 171.077 341.353 169.401 343.572 167.909C345.799 166.425 348.097 165.076 350.455 163.836C352.805 162.587 355.208 161.473 357.654 160.468C362.539 158.434 367.59 156.811 372.777 155.735C375.375 155.227 378 154.845 380.647 154.751C381.966 154.682 383.295 154.74 384.608 154.833C385.921 154.976 387.228 155.212 388.478 155.592C385.891 155.179 383.287 155.349 380.73 155.73C378.172 156.111 375.66 156.685 373.192 157.437C370.716 158.163 368.284 158.999 365.878 159.944C363.482 160.897 361.111 161.893 358.785 163.014C354.158 165.265 349.627 167.726 345.51 170.689C343.451 172.153 341.461 173.718 339.762 175.482C337.93 177.349 335.971 179.293 333.899 180.944C332.863 181.803 331.783 182.57 330.712 183.378C329.616 184.128 328.545 184.92 327.413 185.62C325.194 187.078 322.896 188.41 320.555 189.667C318.196 190.874 315.828 192.055 313.399 193.11C312.198 193.659 310.97 194.148 309.751 194.647C308.514 195.111 307.278 195.593 306.032 196.015C303.55 196.902 301.016 197.688 298.488 198.381C296.028 199.057 293.639 199.951 291.338 201.046C289.019 202.126 286.823 203.473 284.782 205.022C282.75 206.562 280.814 208.312 279.256 210.412Z" fill="#006A45"></path><path d="M321.017 152.644C329.654 149.824 339.581 153.282 348.011 150.743C345.516 150.253 343.394 149.225 342.979 147.591C341.917 143.413 351.079 143.949 355.462 146.722C360.138 143.236 359.914 141.338 365.537 142.183C369.561 140.861 376.365 144.286 375.825 147.673C378.47 149.142 381.199 149.976 384.131 148.644C382.473 144.821 379.31 140.502 369.231 138.66C350.48 135.227 338.995 141.061 321.017 152.644Z" fill="#006F54"></path><path d="M290.633 189.857C290.771 188.977 291.577 188.011 292.815 187.048C293.154 186.544 293.493 186.024 293.814 185.488C299.927 175.272 302.48 176.802 308.878 170.893C310.572 169.323 311.526 167.536 312.208 165.684C311.945 164.564 312.318 163.477 313.174 162.494C313.782 160.237 314.366 158.041 315.726 156.214C303.775 164.758 305.729 167.487 294.306 179.472C289.268 184.754 285.873 190.648 283.601 195.851C285.796 194.452 288.304 192.509 290.633 189.857Z" fill="#006F54"></path></g><defs><clipPath id="clip0_80_314"><rect width="476" height="399" fill="white" transform="matrix(-1 0 0 1 476 0)"></rect></clipPath></defs></svg>