<svg xmlns="http://www.w3.org/2000/svg" width="306" height="554" viewBox="0 0 306 554" fill="none"><g opacity="0.07"><path d="M140.505 377.48C145.236 372.484 149.665 367.564 154.366 362.923C166.799 350.642 181.151 341.421 197.846 335.942C216.083 329.956 233.746 331.528 250.978 339.585C263.123 345.268 273.568 353.249 282.524 363.21C289.697 371.192 296.824 379.218 304.132 387.071C306.581 389.701 309.385 392.051 312.249 394.235C321.085 400.962 330.041 407.537 338.929 414.196C354.127 425.585 366.296 439.771 375.879 456.021C386.634 474.258 388.803 493.803 382.348 514.073C376.227 533.3 352.041 555.822 322.324 552.996C312.401 552.051 303.067 549.156 293.838 545.574C274.883 538.205 255.77 531.297 235.824 526.997C225.349 524.737 214.768 524.669 204.157 525.266C187.492 526.211 171.303 529.672 155.432 534.713C152.348 535.696 149.363 536.981 146.355 538.182C127.596 545.672 108.853 545.672 90.2905 537.668C76.5654 531.75 65.6443 522.5 60.8602 507.996C52.4105 482.383 55.3052 458.515 73.8295 437.708C79.0822 431.805 84.8791 426.439 91.4393 422.101C110.032 409.789 125.775 394.402 140.505 377.48Z" fill="#FF922F"></path><path d="M225.372 242.111C223.384 230.608 223.921 219.4 225.379 208.245C226.589 198.979 228.327 189.781 229.755 180.545C229.982 179.109 229.831 177.613 229.869 176.147C229.891 175.285 229.854 174.401 230.027 173.569C233.504 157.101 236.814 140.572 242.309 124.632C244.327 118.775 247.04 113.099 249.957 107.619C252.625 102.609 256.744 98.7163 261.665 95.7688C267.136 92.4962 272.88 91.7556 278.889 94.0002C281.103 94.8241 283.318 95.7159 285.389 96.8496C298.335 103.931 309.211 113.356 316.603 126.242C326.39 143.308 333.759 161.424 338.452 180.553C340.916 190.597 341.075 200.808 339.412 211.026C337.53 222.665 332.497 232.83 324.992 241.824C317.525 250.78 309.045 258.678 299.665 265.586C292.667 270.733 285.041 274.656 276.425 276.348C254.235 280.687 231.358 266.161 225.833 244.25C225.704 243.646 225.583 243.033 225.372 242.111Z" fill="#FF922F"></path><path d="M119.41 135.424C123.492 128.69 127.263 122.07 131.473 115.751C135.229 110.121 139.953 105.284 145.538 101.384C152.264 96.6829 159.565 93.8714 167.977 94.7179C175.414 95.4661 181.483 98.852 186.562 104.18C191.459 109.32 194.8 115.426 197.347 121.994C201.322 132.273 203.68 142.99 205.955 153.73C209.56 170.72 212.259 187.823 212.274 205.251C212.281 214.88 211.2 224.411 209.916 233.941C209.152 239.617 208.933 245.376 208.056 251.037C206.099 263.689 198.065 271.723 185.39 274.02C175.868 275.751 166.511 274.663 157.26 272.123C140.278 267.46 126.976 257.809 117.559 242.882C109.933 230.782 103.584 218.13 100.644 203.989C98.5054 193.703 99.4955 183.644 102.798 173.75C107.189 160.577 113.236 148.129 119.41 135.424Z" fill="#FF922F"></path><path d="M20.0626 221.093C24.6578 215.727 29.7366 211.366 35.594 207.889C39.645 205.486 43.8925 205.017 48.5406 205.554C57.1716 206.544 63.7394 210.746 68.8939 217.503C69.8764 218.795 70.9042 220.057 71.8187 221.387C81.8858 235.982 92.5197 250.153 103.698 263.908C109.842 271.466 115.669 279.265 120.506 287.745C123.991 293.844 126.817 300.216 128.231 307.131C129.969 315.649 129.266 324.053 126.447 332.223C120.234 350.271 109.313 364.337 91.2953 371.811C74.1843 378.908 57.5798 377.389 41.9728 367.352C29.4419 359.295 20.7806 347.792 14.0919 334.71C7.19912 321.211 3.51845 306.761 1.83305 291.766C0.638909 281.178 0.56333 270.612 2.3621 260.061C4.83352 245.61 10.6228 232.671 20.0626 221.093Z" fill="#FF922F"></path><path d="M179.843 68.4241C179.398 71.1751 177.954 72.3844 175.475 72.5356C167.388 73.0268 159.309 73.5785 151.222 74.0622C149.733 74.1529 148.221 74.1303 146.74 73.9791C141.827 73.4652 138.404 69.1118 139.348 64.2219C139.983 60.9343 140.951 57.6768 142.115 54.5328C146.77 41.9867 152.696 30.0529 159.883 18.769C161.538 16.1691 163.518 13.6675 165.793 11.6042C168.786 8.89846 171.258 9.58623 172.716 13.3425C173.518 15.3982 173.865 17.6731 174.13 19.88C175.891 34.3533 177.576 48.8341 179.284 63.315C179.473 64.9172 179.685 66.5195 179.843 68.4241Z" fill="#FF922F"></path><path d="M263.826 2.12692C265.919 4.946 268.005 7.4552 269.691 10.2063C276.417 21.1803 281.882 32.774 286.099 44.9497C287.913 50.1948 288.691 55.5987 288.6 61.1159C288.525 65.5448 287.701 66.3157 283.438 67.6157C276.44 69.747 269.366 69.3011 262.329 68.2732C256.895 67.4721 253.963 63.867 254.227 58.38C254.462 53.4145 255.24 48.4717 255.747 43.5137C256.918 31.9729 257.402 20.3942 257.175 8.79294C257.145 7.42497 257.107 6.04189 257.243 4.68147C257.621 0.675813 260.274 -0.450306 263.826 2.12692Z" fill="#FF922F"></path><path d="M49.3709 174.09C49.5674 175.02 49.7337 175.625 49.7866 176.244C50.1267 180.099 49.5674 180.885 45.796 181.437C40.7474 182.177 35.6912 182.873 30.6274 183.492C25.9416 184.067 23.6893 182.381 23.7574 177.597C23.8329 172.518 24.2713 167.387 25.2085 162.406C26.9921 152.959 30.1362 143.897 34.1116 135.137C34.6255 134.004 35.1999 132.885 35.8726 131.85C36.6813 130.603 37.6411 128.94 39.2887 129.605C40.2939 130.006 40.891 131.585 41.5032 132.726C41.8433 133.354 41.8282 134.177 41.9642 134.911C44.1182 146.27 46.2797 157.637 48.4337 169.004C48.736 170.591 49.0006 172.186 49.3709 174.09Z" fill="#FF922F"></path></g></svg>